<svg xmlns="http://www.w3.org/2000/svg" xmlns:xlink="http://www.w3.org/1999/xlink" viewBox="0 0 62 65" fill="#fff" fill-rule="evenodd" stroke="#000" stroke-linecap="round" stroke-linejoin="round"><use xlink:href="#A" x=".5" y=".5"/><symbol id="A" overflow="visible"><path d="M39.775 64c-1.114 0-2.042-.65-4.455-2.413l-5.105-4.038c-5.94 5.01-8.074 6.45-9.42 6.45-1.95 0-7.518-3.342-11.185-6.312-6.36-5.15-9.6-10.534-9.6-16 0-9.143 5.43-17.775 14.248-22.695l-1.44-6.776-1.44-6.683L10.21 0l13.877 7.936L30.215.37l6.265 7.6L50.403 0l-2.6 12.206-1.485 6.822c8.773 4.92 14.203 13.552 14.203 22.65 0 5.848-3.25 11.324-9.653 16.336C46.97 61.03 41.49 64 39.775 64zM15.363 24.18C8.866 28.3 5.06 34.76 5.06 41.677c0 3.806 2.692 7.983 7.75 12.067 1.8 1.44 3.852 2.83 5.894 3.945.696.37 1.392.743 1.95.975.418-.278 1.02-.743 1.717-1.253l4.038-3.25c-4.177-3.666-5.105-4.92-5.384-5.616-.418-.928-1.8-7.008-4.827-20.978zM34.16 54.16c1.532 1.253 3.017 2.46 4.27 3.342l1.624 1.16c.557-.232 1.207-.557 1.856-.882 2.045-1.072 3.987-2.33 5.8-3.76 5.06-3.945 7.75-8.26 7.75-12.392 0-6.87-3.806-13.32-10.257-17.45L39.68 48.545c-.186.418-.5 1.253-5.523 5.616zm-8.54-7.6c.278.37 1.903 1.95 4.64 4.316l2.785-2.46 1.717-1.624.325-.325c.37-1.346 1.95-8.4 4.502-20.235l.975-4.363a28.33 28.33 0 0 0-10.257-1.903 28.27 28.27 0 0 0-10.21 1.903l1.02 4.734L25.62 46.55zm4.642-31.662c3.945 0 7.75.65 11.37 1.996l1.485-6.822-7.75 4.455-5.105-6.173-4.966 6.126-7.797-4.455 1.44 6.822c3.62-1.3 7.426-1.95 11.324-1.95z" stroke="none" fill="#0faff0" fill-rule="nonzero"/></symbol></svg>